<?xml version="1.0" encoding="utf-8"?>
<!-- Generator: Adobe Illustrator 19.0.0, SVG Export Plug-In . SVG Version: 6.00 Build 0)  -->
<svg version="1.1" id="Layer_1" xmlns="http://www.w3.org/2000/svg" xmlns:xlink="http://www.w3.org/1999/xlink" x="0px" y="0px"
	 viewBox="96 259 792 64.5" style="enable-background:new 96 259 792 64.5;" xml:space="preserve">
<style type="text/css">
	.st0{fill:url(#SVGID_1_);}
	.st1{fill:url(#XMLID_3_);}
	.st2{fill:url(#SVGID_2_);}
	.st3{fill:url(#SVGID_3_);}
	.st4{fill:url(#SVGID_4_);}
	.st5{fill:url(#SVGID_5_);}
	.st6{fill:url(#SVGID_6_);}
	.st7{fill:url(#SVGID_7_);}
	.st8{fill:url(#XMLID_4_);}
</style>
<linearGradient id="SVGID_1_" gradientUnits="userSpaceOnUse" x1="-217.822" y1="213.7784" x2="-406.2165" y2="-81.6241">
	<stop  offset="0" style="stop-color:#00716A"/>
	<stop  offset="1" style="stop-color:#00A69C"/>
</linearGradient>
<path class="st0" d="M-6-253.3v356.6h-792v-316.3c0,0,216.7,1.7,515.9-25.7C-128.3-255.1-6-253.3-6-253.3z"/>
<g id="XMLID_5_">
	<path id="XMLID_7_" d="M611.9,78C312.7,105.4,96,103.8,96,103.8L888,126V63.5C888,63.5,765.7,61.7,611.9,78z"/>
</g>
<g id="XMLID_60_">
	
		<linearGradient id="XMLID_3_" gradientUnits="userSpaceOnUse" x1="1342.1877" y1="6049.4004" x2="1380.109" y2="5823.98" gradientTransform="matrix(-1 0 0 -1 983.6506 5859.4663)">
		<stop  offset="0" style="stop-color:#00A69C"/>
		<stop  offset="1" style="stop-color:#009289"/>
	</linearGradient>
	<path id="XMLID_61_" class="st1" d="M-549.8,293.4c299.2-27.4,515.9-25.7,515.9-25.7c-300.2-2.2-609.2,0.3-792-67.5v117.6
		C-825.8,317.8-763.4,319.8-549.8,293.4z"/>
</g>
<linearGradient id="SVGID_2_" gradientUnits="userSpaceOnUse" x1="53.855" y1="401.8027" x2="825.9247" y2="401.8027" gradientTransform="matrix(1 0 0 -1 0 602)">
	<stop  offset="0" style="stop-color:#096777"/>
	<stop  offset="1" style="stop-color:#00ACA2"/>
</linearGradient>
<path class="st2" d="M888,169.9v62.5l-792,0v-22.3c133,3.3,462.6-20.5,519.4-26.1C778.3,168.1,929.9,165.6,888,169.9z"/>
<linearGradient id="SVGID_3_" gradientUnits="userSpaceOnUse" x1="54.2273" y1="896.8633" x2="819.4762" y2="896.8633" gradientTransform="matrix(1 0 0 -1 0 602)">
	<stop  offset="0" style="stop-color:#096777"/>
	<stop  offset="1" style="stop-color:#00ACA2"/>
</linearGradient>
<polygon class="st3" points="96,-253.4 888,-336.4 96,-336.4 "/>
<linearGradient id="SVGID_4_" gradientUnits="userSpaceOnUse" x1="54.2273" y1="-478.6042" x2="819.4762" y2="-478.6042">
	<stop  offset="0" style="stop-color:#096777"/>
	<stop  offset="1" style="stop-color:#00ACA2"/>
</linearGradient>
<rect x="96" y="-620.8" class="st4" width="792" height="284.5"/>
<g>
	
		<linearGradient id="SVGID_5_" gradientUnits="userSpaceOnUse" x1="496.3904" y1="305.861" x2="495.3904" y2="429.861" gradientTransform="matrix(1 0 0 -1 0 602)">
		<stop  offset="0" style="stop-color:#096777"/>
		<stop  offset="1" style="stop-color:#00ACA2"/>
	</linearGradient>
	<path class="st5" d="M615.4,184C558.6,189.6,229,213.4,96,210.1l792,22.3v-62.5C929.9,165.6,778.3,168.1,615.4,184z"/>
</g>
<linearGradient id="SVGID_6_" gradientUnits="userSpaceOnUse" x1="54.0216" y1="-314.2679" x2="826.0914" y2="-314.2679" gradientTransform="matrix(1 0 0 1 0 605.6133)">
	<stop  offset="0" style="stop-color:#096777"/>
	<stop  offset="1" style="stop-color:#00ACA2"/>
</linearGradient>
<path class="st6" d="M615.6,307.5c-56.8-5.6-386.4-29.3-519.4-26.1v-22.3h792v62.5C930.1,325.9,778.5,323.5,615.6,307.5z"/>
<g>
	
		<linearGradient id="SVGID_7_" gradientUnits="userSpaceOnUse" x1="496.5571" y1="-410.2096" x2="495.5571" y2="-286.2096" gradientTransform="matrix(1 0 0 1 0 605.6133)">
		<stop  offset="0" style="stop-color:#096777"/>
		<stop  offset="1" style="stop-color:#00ACA2"/>
	</linearGradient>
	<path class="st7" d="M615.6,307.5c-56.8-5.6-386.4-29.3-519.4-26.1l792-22.3v62.5C930.1,325.9,778.5,323.5,615.6,307.5z"/>
</g>
<linearGradient id="XMLID_4_" gradientUnits="userSpaceOnUse" x1="74.0527" y1="776.4191" x2="785.0527" y2="794.4191">
	<stop  offset="0" style="stop-color:#096877"/>
	<stop  offset="1" style="stop-color:#00ABA1"/>
</linearGradient>
<rect id="XMLID_91_" x="96" y="688" class="st8" width="792" height="198"/>
</svg>
